<svg xmlns="http://www.w3.org/2000/svg" width="516.7" height="623.4" viewBox="0 0 516.7 623.4"><path d="M211.8 456.7c-2.8 0-5.1 1.8-6 4.2L193.5 492l-1.1 3.5-1-3.6-9.5-30.2c0-.1-.1-.2-.1-.3v-.1c-.9-2.5-3.3-4.3-6.1-4.3h-15.3c-3.5.2-6.2 3-6.2 6.5 0 .9.4 2.2.7 3.3l2 6.3-7.5 18.9-1.2 3.5-1-3.5-9.5-30.3c-.1-.1-.1-.2-.1-.3v-.1c-.9-2.5-3.3-4.3-6.1-4.3h-15.3c-3.4.2-6.2 3-6.2 6.5 0 .9.4 2.2.8 3.3l23 68.4c.7 2.8 3.3 4.9 6.2 4.9 2.9 0 5.4-1.9 6.2-4.5l16.1-40.6 1.2-3.6 1 3.6 13.5 40.3c.7 2.8 3.2 4.9 6.3 4.9 2.9 0 5.4-2 6.2-4.7l27.2-69.3c.4-.9.7-1.8.7-2.8-.1-3.8-3-6.7-6.6-6.7zM326.2 456.7c-2.8 0-5.2 1.8-6.1 4.2L307.9 492l-1.2 3.5-.9-3.6-9.6-30.2v-.4c-.9-2.5-3.3-4.3-6.1-4.3h-15.3c-3.4.2-6.1 3-6.1 6.5 0 .9.4 2.2.7 3.3l2 6.3-7.5 18.9-1.2 3.5-.9-3.5-9.5-30.3c-.1-.1-.1-.2-.2-.3v-.1c-.9-2.5-3.3-4.3-6-4.3h-15.4c-3.5.2-6.2 3-6.2 6.5 0 .9.4 2.2.7 3.3l23 68.4c.7 2.8 3.2 4.9 6.2 4.9 2.9 0 5.3-1.9 6.2-4.5l16.1-40.6 1.1-3.6 1 3.6 13.5 40.3c.7 2.8 3.3 4.9 6.3 4.9 2.9 0 5.4-2 6.2-4.7l27.2-69.3c.4-.9.6-1.8.6-2.8.1-3.8-2.8-6.7-6.4-6.7zM400.5 456.9h-53.6c-3.1 0-5.6 2.5-5.6 5.6v71.2c.1 3.2 2.8 5.8 6 5.8h15.2c3.3-.1 5.9-2.7 5.9-6v-33.3l21.9-.1c3.2 0 5.8-2.6 5.8-5.9 0-3.2-2.6-5.9-5.9-5.9h-21.7v-19h32.4c3.3-.2 6-2.9 6-6.3-.1-3.4-2.9-6.1-6.4-6.1zM317.3 229.8c9.8 10.9 10.8 43.5 35.3 30.5 14.8-7.8 14.5-40.6-5.1-52.4-15.9-9.4-24.6 3.3-30.4 18.8-.4 1.3-.4 2.5.2 3.1zM279.2 224.6c-10.3 8.5-17.3 31.8-36.2 23.9-15.2-7.8-16.7-38 9.6-51.9 18.3-8.4 27.6 8.3 27.7 25.9.1.7-.5 1.6-1.1 2.1zM304.5 284c10.1-1 7.8-10.4.2-12.8-6.9-2-17.3-3.4-24.6-3.2-13 .3-12.7 10.2-5.9 11.9 5.1 1.7 8.4 2.4 12.9 8.1 4 7.9 2.2-2.3 17.4-4zM352.3 116c12.7-21.2 34.9-17.1 45.9-6.5 12.2 11.5 14.2 24.7 9.5 34-6.4 12.5-22.7 27.7-33.2 13-4.7-6.5-14.6-14.2-20-16.5-8.4-3.5-10-11-2.2-24z"></path><path d="M403 209.4c-1.1-3.8-3-3.5-2.9-.4 1 38.6-22 80-71.4 80.2-12.6 0-8.8 20.2-31.8 10.1-16.6-11.2-26.1 10.8-37.9-12.9-2.6-6.8-6.5-9.6-11.5-10.8-48.7-12.1-64.2-79.1-21.3-133.2 8.5 5.1 11.6 5.8 20.7-2.5 4.7-4.4 12.7-9.2 17-10.8 10.3-3.9 15.9-8.4 7-28-11.4-25.6-34.9-18.3-45.6-9.5-12.1 10-20.6 26.1-5 45-43.6 29.4-51.1 65.6-50.1 97 1 33.4-7.5 30.6 3.1 64.6.9 3-1.1 2.9-2.8 2-45.5-29.1-70.1-117.9.8-166.9 1.6-1.4.9-3.3-4.9.1-61.4 32.5-67 95.3-56.8 137.6 5 20.5-2.6 24.3 5.4 51.2 18.3 56.2 33.8 60.6 55.8 62.2 40 0 12.9-22.1 14.4-49.8 0-1.6 2-2.4 3.1.9 22 49.4 37.6 94.4 95.5 90.2 33.5-4.4 14.9-21 12.9-30.5-24.7-81.8 35.2-101.1 18.2-21.3-11.2 45.7 24.2 41.1 49.1 24.7 25.5-16.8 57.6-128 39-189.2m-97.6 96.7c-5.5 14.7-34.3 9.6-35.2-4.6 0-.6.8-.4 1.1-.4 12.8 3 25 4.4 33.3 4.4.3.1.9-.1.8.6z"></path><g><path d="M176.9 405.3c0 5.9-4.8 10.7-10.7 10.7-5.9 0-10.7-4.8-10.7-10.7 0-5.9 4.8-10.7 10.7-10.7 5.9 0 10.7 4.8 10.7 10.7m-10.7-12.8c-7.1 0-12.9 5.8-12.9 12.8 0 7.1 5.8 12.9 12.9 12.9 7.1 0 12.8-5.8 12.8-12.9 0-7.1-5.7-12.8-12.8-12.8z"></path><path d="M169.9 407.3c-.3 1.6-1.6 2.6-3.3 2.6-2.5 0-4-2.2-4-4.7 0-2.6 1.4-4.6 4-4.6 1.7 0 3 1 3.4 2.5h1.8c-.3-2.8-2.5-4.4-5.2-4.4-3.8 0-6 2.8-6 6.4 0 3.7 2.4 6.5 6.1 6.5 2.6 0 4.7-1.7 5.2-4.4h-2zM402.7 435.9c0 5.9-4.8 10.7-10.7 10.7-6 0-10.8-4.8-10.8-10.7 0-5.9 4.8-10.7 10.8-10.7 5.8.1 10.7 4.8 10.7 10.7M392 423.1c-7.2 0-12.9 5.7-12.9 12.8 0 7.2 5.7 12.8 12.9 12.8 7.1 0 12.8-5.7 12.8-12.8 0-7.1-5.8-12.8-12.8-12.8z"></path><path d="M389.7 436.8h2.1l3.2 5.2h2l-3.5-5.4c1.8-.2 3.2-1.2 3.2-3.3 0-2.4-1.4-3.5-4.2-3.5h-4.7V442h1.9v-5.2m0-1.6v-3.8h2.5c1.3 0 2.6.3 2.6 1.8 0 1.9-1.4 2-3 2h-2.1z"></path></g></svg>