<?xml version="1.0" encoding="UTF-8"?>
<svg xmlns="http://www.w3.org/2000/svg" xmlns:xlink="http://www.w3.org/1999/xlink" width="170px" height="67px" viewBox="0 0 170 67" version="1.1">
<defs>
<linearGradient id="linear0" gradientUnits="userSpaceOnUse" x1="110.91" y1="-45.71" x2="110.91" y2="-18.56" gradientTransform="matrix(1,0,0,-1,0,-18)">
<stop offset="0.78" style="stop-color:rgb(100%,100%,100%);stop-opacity:1;"/>
<stop offset="1" style="stop-color:rgb(100%,100%,100%);stop-opacity:0;"/>
</linearGradient>
<linearGradient id="linear1" gradientUnits="userSpaceOnUse" x1="1385.9" y1="2809.87" x2="1385.9" y2="2836.96" gradientTransform="matrix(-1,-0.000000000000000122,-0.000000000000000122,1,1496.81,-2770.52)">
<stop offset="0.76" style="stop-color:rgb(100%,100%,100%);stop-opacity:1;"/>
<stop offset="1" style="stop-color:rgb(100%,100%,100%);stop-opacity:0;"/>
</linearGradient>
<linearGradient id="linear2" gradientUnits="userSpaceOnUse" x1="108.78" y1="-57.92" x2="159.94" y2="-57.92" gradientTransform="matrix(1,0,0,-1,0,-18)">
<stop offset="0.83" style="stop-color:rgb(100%,100%,100%);stop-opacity:1;"/>
<stop offset="1" style="stop-color:rgb(100%,100%,100%);stop-opacity:0;"/>
</linearGradient>
<linearGradient id="linear3" gradientUnits="userSpaceOnUse" x1="108.78" y1="-45.13" x2="159.94" y2="-45.13" gradientTransform="matrix(1,0,0,-1,0,-18)">
<stop offset="0.83" style="stop-color:rgb(100%,100%,100%);stop-opacity:1;"/>
<stop offset="1" style="stop-color:rgb(100%,100%,100%);stop-opacity:0;"/>
</linearGradient>
</defs>
<g id="surface1">
<rect x="0" y="0" width="170" height="67" style="fill:rgb(24.705882%,2.745098%,19.215686%);fill-opacity:1;stroke:none;"/>
<path style=" stroke:none;fill-rule:nonzero;fill:rgb(100%,100%,100%);fill-opacity:1;" d="M 16.421875 47.378906 L 15.691406 47.378906 L 11.628906 41.210938 L 11.628906 47.378906 L 10.898438 47.378906 L 10.898438 40.050781 L 11.628906 40.050781 L 15.691406 46.210938 L 15.691406 40.050781 L 16.421875 40.050781 Z M 16.421875 47.378906 "/>
<path style=" stroke:none;fill-rule:nonzero;fill:rgb(100%,100%,100%);fill-opacity:1;" d="M 18.109375 42.960938 C 18.339844 42.519531 18.671875 42.171875 19.089844 41.929688 C 19.511719 41.691406 19.980469 41.570312 20.5 41.570312 C 21.019531 41.570312 21.519531 41.699219 21.910156 41.949219 C 22.308594 42.199219 22.589844 42.519531 22.769531 42.921875 L 22.769531 41.660156 L 23.5 41.660156 L 23.5 47.390625 L 22.769531 47.390625 L 22.769531 46.121094 C 22.589844 46.511719 22.300781 46.828125 21.898438 47.089844 C 21.5 47.339844 21.03125 47.46875 20.488281 47.46875 C 19.96875 47.46875 19.511719 47.351562 19.089844 47.101562 C 18.671875 46.851562 18.351562 46.511719 18.109375 46.058594 C 17.878906 45.609375 17.761719 45.101562 17.761719 44.511719 C 17.761719 43.921875 17.878906 43.410156 18.109375 42.960938 Z M 22.480469 43.300781 C 22.289062 42.949219 22.03125 42.679688 21.710938 42.488281 C 21.378906 42.300781 21.03125 42.210938 20.628906 42.210938 C 20.230469 42.210938 19.859375 42.300781 19.539062 42.480469 C 19.21875 42.660156 18.960938 42.929688 18.78125 43.269531 C 18.589844 43.621094 18.5 44.03125 18.5 44.5 C 18.5 44.96875 18.589844 45.378906 18.78125 45.730469 C 18.96875 46.078125 19.21875 46.351562 19.539062 46.539062 C 19.859375 46.730469 20.230469 46.820312 20.628906 46.820312 C 21.03125 46.820312 21.378906 46.730469 21.710938 46.539062 C 22.039062 46.351562 22.289062 46.078125 22.480469 45.730469 C 22.671875 45.378906 22.761719 44.96875 22.761719 44.511719 C 22.761719 44.050781 22.671875 43.640625 22.480469 43.289062 Z M 22.480469 43.300781 "/>
<path style=" stroke:none;fill-rule:nonzero;fill:rgb(100%,100%,100%);fill-opacity:1;" d="M 26.128906 42.269531 L 26.128906 45.828125 C 26.128906 46.179688 26.199219 46.421875 26.328125 46.550781 C 26.460938 46.679688 26.699219 46.75 27.03125 46.75 L 27.699219 46.75 L 27.699219 47.378906 L 26.910156 47.378906 C 26.390625 47.378906 26.011719 47.261719 25.761719 47.019531 C 25.511719 46.78125 25.378906 46.378906 25.378906 45.828125 L 25.378906 42.269531 L 24.578125 42.269531 L 24.578125 41.648438 L 25.378906 41.648438 L 25.378906 40.210938 L 26.128906 40.210938 L 26.128906 41.648438 L 27.699219 41.648438 L 27.699219 42.269531 Z M 26.128906 42.269531 "/>
<path style=" stroke:none;fill-rule:nonzero;fill:rgb(100%,100%,100%);fill-opacity:1;" d="M 28.898438 40.410156 C 28.800781 40.308594 28.738281 40.179688 28.738281 40.019531 C 28.738281 39.859375 28.789062 39.738281 28.898438 39.640625 C 29 39.539062 29.128906 39.488281 29.28125 39.488281 C 29.429688 39.488281 29.550781 39.539062 29.660156 39.640625 C 29.761719 39.738281 29.820312 39.871094 29.820312 40.019531 C 29.820312 40.171875 29.769531 40.300781 29.660156 40.410156 C 29.558594 40.519531 29.429688 40.570312 29.28125 40.570312 C 29.128906 40.570312 29.011719 40.519531 28.898438 40.410156 Z M 29.648438 41.648438 L 29.648438 47.378906 L 28.921875 47.378906 L 28.921875 41.648438 Z M 29.648438 41.648438 "/>
<path style=" stroke:none;fill-rule:nonzero;fill:rgb(100%,100%,100%);fill-opacity:1;" d="M 32.371094 47.101562 C 31.941406 46.859375 31.601562 46.519531 31.351562 46.070312 C 31.101562 45.628906 30.980469 45.109375 30.980469 44.511719 C 30.980469 43.910156 31.109375 43.398438 31.359375 42.949219 C 31.609375 42.5 31.949219 42.160156 32.390625 41.921875 C 32.828125 41.679688 33.308594 41.558594 33.851562 41.558594 C 34.390625 41.558594 34.878906 41.679688 35.308594 41.921875 C 35.75 42.160156 36.089844 42.5 36.339844 42.949219 C 36.589844 43.390625 36.710938 43.910156 36.710938 44.511719 C 36.710938 45.109375 36.578125 45.609375 36.328125 46.058594 C 36.078125 46.511719 35.730469 46.851562 35.289062 47.089844 C 34.851562 47.328125 34.359375 47.449219 33.820312 47.449219 C 33.28125 47.449219 32.800781 47.328125 32.371094 47.089844 Z M 34.871094 46.570312 C 35.191406 46.398438 35.449219 46.140625 35.648438 45.789062 C 35.851562 45.441406 35.949219 45.019531 35.949219 44.519531 C 35.949219 44.019531 35.851562 43.589844 35.660156 43.238281 C 35.46875 42.890625 35.210938 42.628906 34.878906 42.460938 C 34.558594 42.289062 34.210938 42.199219 33.828125 42.199219 C 33.449219 42.199219 33.101562 42.28125 32.78125 42.460938 C 32.460938 42.628906 32.199219 42.890625 32.011719 43.238281 C 31.820312 43.589844 31.71875 44.011719 31.71875 44.519531 C 31.71875 45.03125 31.820312 45.449219 32.011719 45.789062 C 32.199219 46.140625 32.460938 46.398438 32.78125 46.570312 C 33.101562 46.738281 33.449219 46.828125 33.820312 46.828125 C 34.191406 46.828125 34.550781 46.738281 34.871094 46.570312 Z M 34.871094 46.570312 "/>
<path style=" stroke:none;fill-rule:nonzero;fill:rgb(100%,100%,100%);fill-opacity:1;" d="M 42.421875 42.179688 C 42.851562 42.601562 43.070312 43.21875 43.070312 44.019531 L 43.070312 47.378906 L 42.351562 47.378906 L 42.351562 44.109375 C 42.351562 43.488281 42.191406 43.011719 41.878906 42.679688 C 41.570312 42.351562 41.140625 42.191406 40.601562 42.191406 C 40.058594 42.191406 39.609375 42.359375 39.28125 42.710938 C 38.949219 43.058594 38.789062 43.570312 38.789062 44.25 L 38.789062 47.378906 L 38.058594 47.378906 L 38.058594 41.648438 L 38.789062 41.648438 L 38.789062 42.628906 C 38.96875 42.28125 39.230469 42.011719 39.578125 41.828125 C 39.921875 41.648438 40.308594 41.550781 40.75 41.550781 C 41.441406 41.550781 42 41.761719 42.429688 42.179688 Z M 42.421875 42.179688 "/>
<path style=" stroke:none;fill-rule:nonzero;fill:rgb(100%,100%,100%);fill-opacity:1;" d="M 44.710938 42.960938 C 44.941406 42.519531 45.269531 42.171875 45.691406 41.929688 C 46.109375 41.691406 46.578125 41.570312 47.101562 41.570312 C 47.621094 41.570312 48.121094 41.699219 48.511719 41.949219 C 48.910156 42.199219 49.191406 42.519531 49.371094 42.921875 L 49.371094 41.660156 L 50.101562 41.660156 L 50.101562 47.390625 L 49.371094 47.390625 L 49.371094 46.121094 C 49.191406 46.511719 48.898438 46.828125 48.5 47.089844 C 48.101562 47.339844 47.628906 47.46875 47.089844 47.46875 C 46.570312 47.46875 46.109375 47.351562 45.691406 47.101562 C 45.269531 46.851562 44.949219 46.511719 44.710938 46.058594 C 44.480469 45.609375 44.359375 45.101562 44.359375 44.511719 C 44.359375 43.921875 44.480469 43.410156 44.710938 42.960938 Z M 49.078125 43.300781 C 48.890625 42.949219 48.628906 42.679688 48.308594 42.488281 C 47.980469 42.300781 47.628906 42.210938 47.230469 42.210938 C 46.828125 42.210938 46.460938 42.300781 46.140625 42.480469 C 45.820312 42.660156 45.558594 42.929688 45.378906 43.269531 C 45.191406 43.621094 45.101562 44.03125 45.101562 44.5 C 45.101562 44.96875 45.191406 45.378906 45.378906 45.730469 C 45.570312 46.078125 45.820312 46.351562 46.140625 46.539062 C 46.460938 46.730469 46.828125 46.820312 47.230469 46.820312 C 47.628906 46.820312 47.980469 46.730469 48.308594 46.539062 C 48.640625 46.351562 48.890625 46.078125 49.078125 45.730469 C 49.269531 45.378906 49.359375 44.96875 49.359375 44.511719 C 49.359375 44.050781 49.269531 43.640625 49.078125 43.289062 Z M 49.078125 43.300781 "/>
<path style=" stroke:none;fill-rule:nonzero;fill:rgb(100%,100%,100%);fill-opacity:1;" d="M 52.511719 39.609375 L 52.511719 47.371094 L 51.78125 47.371094 L 51.78125 39.609375 Z M 52.511719 39.609375 "/>
<path style=" stroke:none;fill-rule:nonzero;fill:rgb(100%,100%,100%);fill-opacity:1;" d="M 57.789062 40.640625 L 57.789062 43.378906 L 60.570312 43.378906 L 60.570312 43.988281 L 57.789062 43.988281 L 57.789062 46.769531 L 60.890625 46.769531 L 60.890625 47.378906 L 57.058594 47.378906 L 57.058594 40.03125 L 60.890625 40.03125 L 60.890625 40.640625 Z M 57.789062 40.640625 "/>
<path style=" stroke:none;fill-rule:nonzero;fill:rgb(100%,100%,100%);fill-opacity:1;" d="M 66.699219 42.179688 C 67.128906 42.601562 67.351562 43.21875 67.351562 44.019531 L 67.351562 47.378906 L 66.628906 47.378906 L 66.628906 44.109375 C 66.628906 43.488281 66.46875 43.011719 66.160156 42.679688 C 65.851562 42.351562 65.421875 42.191406 64.878906 42.191406 C 64.339844 42.191406 63.890625 42.359375 63.558594 42.710938 C 63.230469 43.058594 63.070312 43.570312 63.070312 44.25 L 63.070312 47.378906 L 62.339844 47.378906 L 62.339844 41.648438 L 63.070312 41.648438 L 63.070312 42.628906 C 63.25 42.28125 63.511719 42.011719 63.859375 41.828125 C 64.199219 41.648438 64.589844 41.550781 65.03125 41.550781 C 65.71875 41.550781 66.28125 41.761719 66.710938 42.179688 Z M 66.699219 42.179688 "/>
<path style=" stroke:none;fill-rule:nonzero;fill:rgb(100%,100%,100%);fill-opacity:1;" d="M 74.140625 44.800781 L 69.390625 44.800781 C 69.410156 45.230469 69.519531 45.601562 69.699219 45.910156 C 69.878906 46.21875 70.140625 46.449219 70.449219 46.609375 C 70.761719 46.769531 71.089844 46.851562 71.460938 46.851562 C 71.941406 46.851562 72.339844 46.730469 72.660156 46.5 C 72.988281 46.269531 73.199219 45.960938 73.308594 45.570312 L 74.089844 45.570312 C 73.949219 46.128906 73.648438 46.589844 73.191406 46.941406 C 72.730469 47.289062 72.160156 47.46875 71.460938 47.46875 C 70.921875 47.46875 70.441406 47.351562 70.011719 47.109375 C 69.578125 46.871094 69.25 46.53125 69.011719 46.078125 C 68.769531 45.628906 68.648438 45.121094 68.648438 44.519531 C 68.648438 43.921875 68.769531 43.398438 69.011719 42.960938 C 69.25 42.511719 69.578125 42.171875 70.011719 41.929688 C 70.441406 41.691406 70.921875 41.570312 71.46875 41.570312 C 72.019531 41.570312 72.488281 41.691406 72.898438 41.929688 C 73.308594 42.171875 73.621094 42.488281 73.839844 42.890625 C 74.058594 43.289062 74.171875 43.738281 74.171875 44.230469 C 74.171875 44.480469 74.171875 44.671875 74.148438 44.808594 Z M 73.160156 43.109375 C 72.980469 42.808594 72.738281 42.578125 72.429688 42.429688 C 72.121094 42.28125 71.789062 42.199219 71.421875 42.199219 C 70.871094 42.199219 70.410156 42.371094 70.019531 42.71875 C 69.628906 43.070312 69.421875 43.558594 69.378906 44.199219 L 73.410156 44.199219 C 73.410156 43.769531 73.328125 43.410156 73.148438 43.109375 Z M 73.160156 43.109375 "/>
<path style=" stroke:none;fill-rule:nonzero;fill:rgb(100%,100%,100%);fill-opacity:1;" d="M 76.980469 41.839844 C 77.308594 41.640625 77.71875 41.550781 78.199219 41.550781 L 78.199219 42.320312 L 78 42.320312 C 77.46875 42.320312 77.039062 42.460938 76.71875 42.75 C 76.398438 43.039062 76.238281 43.519531 76.238281 44.191406 L 76.238281 47.390625 L 75.511719 47.390625 L 75.511719 41.660156 L 76.238281 41.660156 L 76.238281 42.679688 C 76.398438 42.320312 76.648438 42.050781 76.980469 41.851562 Z M 76.980469 41.839844 "/>
<path style=" stroke:none;fill-rule:nonzero;fill:rgb(100%,100%,100%);fill-opacity:1;" d="M 83.109375 41.941406 C 83.511719 42.191406 83.800781 42.511719 83.96875 42.898438 L 83.96875 41.648438 L 84.699219 41.648438 L 84.699219 47.53125 C 84.699219 48.058594 84.589844 48.519531 84.359375 48.929688 C 84.128906 49.339844 83.820312 49.648438 83.410156 49.871094 C 83 50.089844 82.539062 50.199219 82.019531 50.199219 C 81.289062 50.199219 80.679688 50.03125 80.191406 49.671875 C 79.699219 49.320312 79.398438 48.839844 79.28125 48.238281 L 80 48.238281 C 80.128906 48.640625 80.371094 48.960938 80.71875 49.199219 C 81.070312 49.441406 81.511719 49.558594 82.019531 49.558594 C 82.390625 49.558594 82.71875 49.480469 83.019531 49.320312 C 83.308594 49.160156 83.539062 48.929688 83.710938 48.621094 C 83.878906 48.308594 83.960938 47.949219 83.960938 47.53125 L 83.960938 46.109375 C 83.78125 46.5 83.488281 46.820312 83.089844 47.078125 C 82.691406 47.328125 82.230469 47.460938 81.691406 47.460938 C 81.148438 47.460938 80.691406 47.339844 80.28125 47.089844 C 79.871094 46.839844 79.539062 46.5 79.300781 46.050781 C 79.070312 45.601562 78.949219 45.089844 78.949219 44.5 C 78.949219 43.910156 79.070312 43.398438 79.300781 42.949219 C 79.53125 42.5 79.859375 42.160156 80.28125 41.921875 C 80.699219 41.679688 81.171875 41.558594 81.691406 41.558594 C 82.210938 41.558594 82.699219 41.691406 83.101562 41.941406 Z M 83.691406 43.300781 C 83.5 42.949219 83.238281 42.679688 82.921875 42.488281 C 82.589844 42.300781 82.238281 42.210938 81.839844 42.210938 C 81.441406 42.210938 81.070312 42.300781 80.75 42.480469 C 80.429688 42.660156 80.171875 42.929688 79.988281 43.269531 C 79.808594 43.621094 79.710938 44.03125 79.710938 44.5 C 79.710938 44.96875 79.800781 45.378906 79.988281 45.730469 C 80.179688 46.078125 80.429688 46.351562 80.75 46.539062 C 81.070312 46.730469 81.441406 46.820312 81.839844 46.820312 C 82.238281 46.820312 82.589844 46.730469 82.921875 46.539062 C 83.25 46.351562 83.5 46.078125 83.691406 45.730469 C 83.878906 45.378906 83.96875 44.96875 83.96875 44.511719 C 83.96875 44.050781 83.878906 43.640625 83.691406 43.289062 Z M 83.691406 43.300781 "/>
<path style=" stroke:none;fill-rule:nonzero;fill:rgb(100%,100%,100%);fill-opacity:1;" d="M 91.101562 41.648438 L 87.699219 50.078125 L 86.929688 50.078125 L 88.039062 47.351562 L 85.691406 41.648438 L 86.5 41.648438 L 88.449219 46.539062 L 90.339844 41.648438 Z M 91.101562 41.648438 "/>
<path style=" stroke:none;fill-rule:nonzero;fill:rgb(100%,100%,100%);fill-opacity:1;" d="M 11.839844 58.691406 C 11.46875 58.519531 11.179688 58.289062 10.96875 57.988281 C 10.761719 57.691406 10.648438 57.351562 10.628906 56.980469 L 11.410156 56.980469 C 11.441406 57.339844 11.601562 57.648438 11.878906 57.921875 C 12.160156 58.191406 12.570312 58.320312 13.109375 58.320312 C 13.609375 58.320312 14 58.191406 14.289062 57.941406 C 14.578125 57.691406 14.730469 57.359375 14.730469 56.96875 C 14.730469 56.660156 14.648438 56.398438 14.488281 56.210938 C 14.328125 56.019531 14.128906 55.871094 13.890625 55.78125 C 13.648438 55.691406 13.320312 55.578125 12.898438 55.46875 C 12.410156 55.339844 12.019531 55.210938 11.738281 55.078125 C 11.449219 54.949219 11.210938 54.761719 11.011719 54.488281 C 10.808594 54.21875 10.710938 53.859375 10.710938 53.410156 C 10.710938 53.03125 10.808594 52.699219 11 52.398438 C 11.199219 52.101562 11.46875 51.871094 11.828125 51.699219 C 12.191406 51.53125 12.601562 51.449219 13.058594 51.449219 C 13.738281 51.449219 14.289062 51.621094 14.699219 51.949219 C 15.121094 52.28125 15.359375 52.710938 15.421875 53.238281 L 14.621094 53.238281 C 14.570312 52.941406 14.410156 52.671875 14.128906 52.441406 C 13.851562 52.210938 13.46875 52.089844 13 52.089844 C 12.558594 52.089844 12.191406 52.210938 11.898438 52.441406 C 11.609375 52.671875 11.460938 52.988281 11.460938 53.398438 C 11.460938 53.710938 11.539062 53.960938 11.699219 54.148438 C 11.859375 54.339844 12.058594 54.480469 12.300781 54.578125 C 12.539062 54.679688 12.871094 54.78125 13.28125 54.898438 C 13.761719 55.03125 14.140625 55.160156 14.429688 55.289062 C 14.71875 55.421875 14.96875 55.621094 15.171875 55.878906 C 15.371094 56.148438 15.46875 56.5 15.46875 56.949219 C 15.46875 57.289062 15.378906 57.621094 15.199219 57.929688 C 15.019531 58.238281 14.75 58.488281 14.390625 58.679688 C 14.03125 58.871094 13.609375 58.960938 13.109375 58.960938 C 12.609375 58.960938 12.199219 58.878906 11.839844 58.710938 Z M 11.839844 58.691406 "/>
<path style=" stroke:none;fill-rule:nonzero;fill:rgb(100%,100%,100%);fill-opacity:1;" d="M 21.621094 53.140625 L 18.21875 61.570312 L 17.449219 61.570312 L 18.558594 58.839844 L 16.210938 53.140625 L 17.019531 53.140625 L 18.96875 58.03125 L 20.859375 53.140625 Z M 21.621094 53.140625 "/>
<path style=" stroke:none;fill-rule:nonzero;fill:rgb(100%,100%,100%);fill-opacity:1;" d="M 22.980469 58.5 C 22.558594 58.199219 22.328125 57.78125 22.28125 57.261719 L 23.039062 57.261719 C 23.070312 57.578125 23.230469 57.839844 23.5 58.039062 C 23.769531 58.238281 24.128906 58.339844 24.589844 58.339844 C 24.988281 58.339844 25.300781 58.25 25.53125 58.058594 C 25.761719 57.871094 25.871094 57.640625 25.871094 57.359375 C 25.871094 57.160156 25.808594 57 25.679688 56.878906 C 25.550781 56.761719 25.390625 56.648438 25.199219 56.578125 C 25.011719 56.511719 24.75 56.429688 24.421875 56.339844 C 23.988281 56.230469 23.648438 56.121094 23.378906 56 C 23.109375 55.890625 22.890625 55.71875 22.699219 55.5 C 22.511719 55.28125 22.421875 54.980469 22.421875 54.609375 C 22.421875 54.328125 22.5 54.070312 22.671875 53.828125 C 22.839844 53.589844 23.078125 53.398438 23.378906 53.261719 C 23.691406 53.121094 24.039062 53.050781 24.429688 53.050781 C 25.050781 53.050781 25.539062 53.210938 25.921875 53.519531 C 26.300781 53.828125 26.5 54.261719 26.53125 54.808594 L 25.800781 54.808594 C 25.78125 54.46875 25.648438 54.199219 25.410156 54 C 25.171875 53.800781 24.839844 53.691406 24.421875 53.691406 C 24.050781 53.691406 23.75 53.78125 23.519531 53.949219 C 23.289062 54.128906 23.171875 54.339844 23.171875 54.601562 C 23.171875 54.820312 23.238281 55.011719 23.371094 55.148438 C 23.511719 55.289062 23.679688 55.398438 23.878906 55.488281 C 24.078125 55.570312 24.359375 55.660156 24.699219 55.761719 C 25.109375 55.871094 25.441406 55.980469 25.691406 56.089844 C 25.941406 56.191406 26.148438 56.351562 26.320312 56.550781 C 26.488281 56.75 26.589844 57.019531 26.589844 57.359375 C 26.589844 57.671875 26.511719 57.941406 26.339844 58.179688 C 26.171875 58.421875 25.941406 58.609375 25.640625 58.75 C 25.339844 58.890625 24.988281 58.960938 24.601562 58.960938 C 23.941406 58.960938 23.410156 58.808594 22.988281 58.5 Z M 22.980469 58.5 "/>
<path style=" stroke:none;fill-rule:nonzero;fill:rgb(100%,100%,100%);fill-opacity:1;" d="M 28.921875 53.761719 L 28.921875 57.320312 C 28.921875 57.671875 28.988281 57.910156 29.121094 58.039062 C 29.25 58.171875 29.488281 58.238281 29.820312 58.238281 L 30.488281 58.238281 L 30.488281 58.871094 L 29.699219 58.871094 C 29.179688 58.871094 28.800781 58.75 28.550781 58.511719 C 28.300781 58.269531 28.171875 57.871094 28.171875 57.320312 L 28.171875 53.761719 L 27.371094 53.761719 L 27.371094 53.140625 L 28.171875 53.140625 L 28.171875 51.699219 L 28.921875 51.699219 L 28.921875 53.140625 L 30.488281 53.140625 L 30.488281 53.761719 Z M 28.921875 53.761719 "/>
<path style=" stroke:none;fill-rule:nonzero;fill:rgb(100%,100%,100%);fill-opacity:1;" d="M 36.871094 56.289062 L 32.121094 56.289062 C 32.140625 56.71875 32.25 57.089844 32.429688 57.398438 C 32.609375 57.710938 32.871094 57.941406 33.179688 58.101562 C 33.488281 58.261719 33.820312 58.339844 34.191406 58.339844 C 34.671875 58.339844 35.070312 58.21875 35.390625 57.988281 C 35.71875 57.761719 35.929688 57.449219 36.039062 57.058594 L 36.820312 57.058594 C 36.679688 57.621094 36.378906 58.078125 35.921875 58.429688 C 35.460938 58.78125 34.890625 58.960938 34.191406 58.960938 C 33.648438 58.960938 33.171875 58.839844 32.738281 58.601562 C 32.308594 58.359375 31.980469 58.019531 31.738281 57.570312 C 31.5 57.121094 31.378906 56.609375 31.378906 56.011719 C 31.378906 55.410156 31.5 54.890625 31.738281 54.449219 C 31.980469 54 32.308594 53.660156 32.738281 53.421875 C 33.171875 53.179688 33.648438 53.058594 34.199219 53.058594 C 34.75 53.058594 35.21875 53.179688 35.628906 53.421875 C 36.039062 53.660156 36.351562 53.980469 36.570312 54.378906 C 36.789062 54.78125 36.898438 55.230469 36.898438 55.71875 C 36.898438 55.96875 36.898438 56.160156 36.878906 56.300781 Z M 35.878906 54.601562 C 35.699219 54.300781 35.460938 54.070312 35.148438 53.921875 C 34.839844 53.769531 34.511719 53.691406 34.140625 53.691406 C 33.589844 53.691406 33.128906 53.859375 32.738281 54.210938 C 32.351562 54.558594 32.140625 55.050781 32.101562 55.691406 L 36.128906 55.691406 C 36.128906 55.261719 36.050781 54.898438 35.871094 54.601562 Z M 35.878906 54.601562 "/>
<path style=" stroke:none;fill-rule:nonzero;fill:rgb(100%,100%,100%);fill-opacity:1;" d="M 46.691406 53.671875 C 47.109375 54.089844 47.320312 54.710938 47.320312 55.511719 L 47.320312 58.871094 L 46.601562 58.871094 L 46.601562 55.601562 C 46.601562 54.980469 46.449219 54.5 46.148438 54.171875 C 45.851562 53.839844 45.441406 53.679688 44.921875 53.679688 C 44.398438 53.679688 43.949219 53.859375 43.628906 54.21875 C 43.308594 54.578125 43.148438 55.101562 43.148438 55.769531 L 43.148438 58.878906 L 42.429688 58.878906 L 42.429688 55.609375 C 42.429688 54.988281 42.28125 54.511719 41.980469 54.179688 C 41.679688 53.851562 41.269531 53.691406 40.738281 53.691406 C 40.210938 53.691406 39.769531 53.871094 39.449219 54.230469 C 39.128906 54.589844 38.96875 55.109375 38.96875 55.78125 L 38.96875 58.890625 L 38.238281 58.890625 L 38.238281 53.160156 L 38.96875 53.160156 L 38.96875 54.148438 C 39.148438 53.789062 39.410156 53.519531 39.75 53.339844 C 40.089844 53.160156 40.460938 53.058594 40.871094 53.058594 C 41.371094 53.058594 41.800781 53.179688 42.179688 53.421875 C 42.550781 53.660156 42.828125 54.011719 42.988281 54.46875 C 43.140625 54.011719 43.410156 53.671875 43.78125 53.429688 C 44.148438 53.191406 44.578125 53.070312 45.050781 53.070312 C 45.71875 53.070312 46.269531 53.28125 46.691406 53.699219 Z M 46.691406 53.671875 "/>
<path style=" stroke:none;fill-rule:nonzero;fill:rgb(100%,100%,100%);fill-opacity:1;" d="M 53.28125 58.46875 C 52.730469 58.148438 52.289062 57.710938 51.96875 57.140625 C 51.648438 56.570312 51.488281 55.921875 51.488281 55.199219 C 51.488281 54.480469 51.648438 53.828125 51.96875 53.261719 C 52.289062 52.691406 52.71875 52.25 53.28125 51.929688 C 53.839844 51.609375 54.449219 51.449219 55.128906 51.449219 C 55.808594 51.449219 56.429688 51.609375 56.988281 51.929688 C 57.550781 52.25 57.980469 52.691406 58.289062 53.261719 C 58.601562 53.828125 58.761719 54.46875 58.761719 55.199219 C 58.761719 55.929688 58.601562 56.570312 58.289062 57.140625 C 57.980469 57.710938 57.539062 58.148438 56.988281 58.46875 C 56.441406 58.789062 55.820312 58.949219 55.128906 58.949219 C 54.441406 58.949219 53.839844 58.789062 53.28125 58.46875 Z M 56.589844 57.929688 C 57.019531 57.679688 57.371094 57.320312 57.621094 56.839844 C 57.871094 56.371094 58 55.820312 58 55.199219 C 58 54.578125 57.871094 54.03125 57.621094 53.558594 C 57.371094 53.089844 57.03125 52.730469 56.589844 52.480469 C 56.160156 52.230469 55.671875 52.101562 55.121094 52.101562 C 54.570312 52.101562 54.078125 52.230469 53.648438 52.480469 C 53.21875 52.730469 52.871094 53.089844 52.621094 53.558594 C 52.371094 54.03125 52.238281 54.570312 52.238281 55.199219 C 52.238281 55.828125 52.371094 56.371094 52.621094 56.839844 C 52.871094 57.308594 53.210938 57.671875 53.648438 57.929688 C 54.078125 58.179688 54.570312 58.308594 55.121094 58.308594 C 55.671875 58.308594 56.160156 58.179688 56.589844 57.929688 Z M 56.589844 57.929688 "/>
<path style=" stroke:none;fill-rule:nonzero;fill:rgb(100%,100%,100%);fill-opacity:1;" d="M 61.691406 53.441406 C 62.089844 53.191406 62.558594 53.058594 63.101562 53.058594 C 63.621094 53.058594 64.078125 53.179688 64.5 53.421875 C 64.921875 53.660156 65.238281 54 65.480469 54.449219 C 65.71875 54.898438 65.828125 55.410156 65.828125 56 C 65.828125 56.589844 65.710938 57.109375 65.480469 57.550781 C 65.25 58 64.921875 58.339844 64.5 58.589844 C 64.078125 58.839844 63.621094 58.960938 63.101562 58.960938 C 62.578125 58.960938 62.089844 58.828125 61.691406 58.578125 C 61.289062 58.320312 61 58 60.820312 57.621094 L 60.820312 61.589844 L 60.101562 61.589844 L 60.101562 53.148438 L 60.820312 53.148438 L 60.820312 54.410156 C 61 54.03125 61.289062 53.699219 61.691406 53.449219 Z M 64.800781 54.761719 C 64.609375 54.410156 64.359375 54.148438 64.039062 53.96875 C 63.71875 53.789062 63.351562 53.699219 62.949219 53.699219 C 62.550781 53.699219 62.199219 53.789062 61.871094 53.980469 C 61.539062 54.171875 61.289062 54.441406 61.101562 54.789062 C 60.910156 55.140625 60.820312 55.550781 60.820312 56.011719 C 60.820312 56.46875 60.910156 56.878906 61.101562 57.230469 C 61.289062 57.578125 61.550781 57.851562 61.871094 58.039062 C 62.199219 58.230469 62.550781 58.320312 62.949219 58.320312 C 63.351562 58.320312 63.71875 58.230469 64.039062 58.039062 C 64.359375 57.851562 64.621094 57.578125 64.800781 57.230469 C 64.988281 56.878906 65.078125 56.46875 65.078125 56 C 65.078125 55.53125 64.988281 55.109375 64.800781 54.769531 Z M 64.800781 54.761719 "/>
<path style=" stroke:none;fill-rule:nonzero;fill:rgb(100%,100%,100%);fill-opacity:1;" d="M 72.339844 56.289062 L 67.589844 56.289062 C 67.609375 56.71875 67.71875 57.089844 67.898438 57.398438 C 68.078125 57.710938 68.339844 57.941406 68.648438 58.101562 C 68.960938 58.261719 69.289062 58.339844 69.660156 58.339844 C 70.140625 58.339844 70.539062 58.21875 70.859375 57.988281 C 71.191406 57.761719 71.398438 57.449219 71.511719 57.058594 L 72.289062 57.058594 C 72.148438 57.621094 71.851562 58.078125 71.390625 58.429688 C 70.929688 58.78125 70.359375 58.960938 69.660156 58.960938 C 69.121094 58.960938 68.640625 58.839844 68.210938 58.601562 C 67.78125 58.359375 67.449219 58.019531 67.210938 57.570312 C 66.96875 57.121094 66.851562 56.609375 66.851562 56.011719 C 66.851562 55.410156 66.96875 54.890625 67.210938 54.449219 C 67.449219 54 67.78125 53.660156 68.210938 53.421875 C 68.640625 53.179688 69.121094 53.058594 69.671875 53.058594 C 70.21875 53.058594 70.691406 53.179688 71.101562 53.421875 C 71.511719 53.660156 71.820312 53.980469 72.039062 54.378906 C 72.261719 54.78125 72.371094 55.230469 72.371094 55.71875 C 72.371094 55.96875 72.371094 56.160156 72.351562 56.300781 Z M 71.359375 54.601562 C 71.179688 54.300781 70.941406 54.070312 70.628906 53.921875 C 70.320312 53.769531 69.988281 53.691406 69.621094 53.691406 C 69.070312 53.691406 68.609375 53.859375 68.21875 54.210938 C 67.828125 54.558594 67.621094 55.050781 67.578125 55.691406 L 71.609375 55.691406 C 71.609375 55.261719 71.53125 54.898438 71.351562 54.601562 Z M 71.359375 54.601562 "/>
<path style=" stroke:none;fill-rule:nonzero;fill:rgb(100%,100%,100%);fill-opacity:1;" d="M 75.179688 53.328125 C 75.511719 53.128906 75.921875 53.039062 76.398438 53.039062 L 76.398438 53.808594 L 76.199219 53.808594 C 75.671875 53.808594 75.238281 53.949219 74.921875 54.238281 C 74.601562 54.53125 74.441406 55.011719 74.441406 55.679688 L 74.441406 58.878906 L 73.710938 58.878906 L 73.710938 53.148438 L 74.441406 53.148438 L 74.441406 54.171875 C 74.601562 53.808594 74.851562 53.539062 75.179688 53.339844 Z M 75.179688 53.328125 "/>
<path style=" stroke:none;fill-rule:nonzero;fill:rgb(100%,100%,100%);fill-opacity:1;" d="M 77.519531 54.449219 C 77.75 54.011719 78.078125 53.660156 78.5 53.421875 C 78.921875 53.179688 79.390625 53.058594 79.910156 53.058594 C 80.429688 53.058594 80.929688 53.191406 81.320312 53.441406 C 81.710938 53.691406 82 54.011719 82.171875 54.410156 L 82.171875 53.148438 L 82.898438 53.148438 L 82.898438 58.878906 L 82.171875 58.878906 L 82.171875 57.609375 C 81.988281 58 81.699219 58.320312 81.300781 58.578125 C 80.898438 58.828125 80.429688 58.960938 79.890625 58.960938 C 79.351562 58.960938 78.898438 58.839844 78.488281 58.589844 C 78.078125 58.339844 77.75 58 77.511719 57.550781 C 77.28125 57.101562 77.160156 56.589844 77.160156 56 C 77.160156 55.410156 77.28125 54.898438 77.511719 54.449219 Z M 81.890625 54.789062 C 81.699219 54.441406 81.441406 54.171875 81.121094 53.980469 C 80.789062 53.789062 80.441406 53.699219 80.039062 53.699219 C 79.640625 53.699219 79.269531 53.789062 78.949219 53.96875 C 78.628906 54.148438 78.371094 54.421875 78.191406 54.761719 C 78 55.109375 77.910156 55.519531 77.910156 55.988281 C 77.910156 56.460938 78 56.871094 78.191406 57.21875 C 78.378906 57.570312 78.628906 57.839844 78.949219 58.03125 C 79.269531 58.21875 79.640625 58.308594 80.039062 58.308594 C 80.441406 58.308594 80.789062 58.21875 81.121094 58.03125 C 81.449219 57.839844 81.699219 57.570312 81.890625 57.21875 C 82.078125 56.871094 82.171875 56.460938 82.171875 56 C 82.171875 55.539062 82.078125 55.128906 81.890625 54.78125 Z M 81.890625 54.789062 "/>
<path style=" stroke:none;fill-rule:nonzero;fill:rgb(100%,100%,100%);fill-opacity:1;" d="M 85.539062 53.761719 L 85.539062 57.320312 C 85.539062 57.671875 85.609375 57.910156 85.738281 58.039062 C 85.871094 58.171875 86.109375 58.238281 86.441406 58.238281 L 87.109375 58.238281 L 87.109375 58.871094 L 86.320312 58.871094 C 85.800781 58.871094 85.421875 58.75 85.171875 58.511719 C 84.921875 58.269531 84.789062 57.871094 84.789062 57.320312 L 84.789062 53.761719 L 83.988281 53.761719 L 83.988281 53.140625 L 84.789062 53.140625 L 84.789062 51.699219 L 85.53125 51.699219 L 85.53125 53.140625 L 87.101562 53.140625 L 87.101562 53.761719 L 85.53125 53.761719 Z M 85.539062 53.761719 "/>
<path style=" stroke:none;fill-rule:nonzero;fill:rgb(100%,100%,100%);fill-opacity:1;" d="M 89.378906 58.589844 C 88.949219 58.351562 88.609375 58.011719 88.359375 57.558594 C 88.109375 57.109375 87.988281 56.601562 87.988281 56 C 87.988281 55.398438 88.121094 54.890625 88.371094 54.441406 C 88.621094 54 88.960938 53.648438 89.398438 53.410156 C 89.828125 53.171875 90.320312 53.050781 90.859375 53.050781 C 91.398438 53.050781 91.890625 53.171875 92.320312 53.410156 C 92.75 53.648438 93.101562 53.988281 93.351562 54.441406 C 93.601562 54.890625 93.71875 55.398438 93.71875 56 C 93.71875 56.601562 93.589844 57.101562 93.339844 57.550781 C 93.089844 58 92.738281 58.339844 92.300781 58.578125 C 91.859375 58.820312 91.371094 58.941406 90.828125 58.941406 C 90.289062 58.941406 89.808594 58.820312 89.378906 58.578125 Z M 91.878906 58.058594 C 92.199219 57.890625 92.460938 57.628906 92.660156 57.28125 C 92.859375 56.929688 92.960938 56.511719 92.960938 56.011719 C 92.960938 55.511719 92.859375 55.078125 92.671875 54.730469 C 92.46875 54.378906 92.210938 54.121094 91.890625 53.949219 C 91.570312 53.78125 91.21875 53.691406 90.839844 53.691406 C 90.460938 53.691406 90.109375 53.769531 89.789062 53.949219 C 89.46875 54.121094 89.210938 54.378906 89.019531 54.730469 C 88.828125 55.078125 88.730469 55.5 88.730469 56.011719 C 88.730469 56.519531 88.828125 56.941406 89.019531 57.28125 C 89.210938 57.628906 89.46875 57.890625 89.789062 58.058594 C 90.109375 58.230469 90.460938 58.320312 90.828125 58.320312 C 91.199219 58.320312 91.558594 58.230469 91.878906 58.058594 Z M 91.878906 58.058594 "/>
<path style=" stroke:none;fill-rule:nonzero;fill:rgb(100%,100%,100%);fill-opacity:1;" d="M 96.53125 53.328125 C 96.859375 53.128906 97.269531 53.039062 97.75 53.039062 L 97.75 53.808594 L 97.550781 53.808594 C 97.019531 53.808594 96.589844 53.949219 96.269531 54.238281 C 95.949219 54.53125 95.789062 55.011719 95.789062 55.679688 L 95.789062 58.878906 L 95.058594 58.878906 L 95.058594 53.148438 L 95.789062 53.148438 L 95.789062 54.171875 C 95.949219 53.808594 96.199219 53.539062 96.53125 53.339844 Z M 96.53125 53.328125 "/>
<path style=" stroke:none;fill-rule:nonzero;fill:rgb(100%,100%,100%);fill-opacity:1;" d="M 31.609375 33.289062 L 26.691406 33.289062 L 15.558594 16.46875 L 15.558594 33.289062 L 10.640625 33.289062 L 10.640625 8.738281 L 15.558594 8.738281 L 26.691406 25.601562 L 26.691406 8.738281 L 31.609375 8.738281 Z M 31.609375 33.289062 "/>
<path style=" stroke:none;fill-rule:nonzero;fill:rgb(100%,100%,100%);fill-opacity:1;" d="M 41.519531 12.738281 L 41.519531 18.890625 L 49.78125 18.890625 L 49.78125 22.789062 L 41.519531 22.789062 L 41.519531 29.289062 L 50.828125 29.289062 L 50.828125 33.289062 L 36.601562 33.289062 L 36.601562 8.738281 L 50.828125 8.738281 L 50.828125 12.738281 Z M 41.519531 12.738281 "/>
<path style=" stroke:none;fill-rule:nonzero;fill:rgb(100%,100%,100%);fill-opacity:1;" d="M 59.140625 32.660156 C 57.769531 32.070312 56.691406 31.230469 55.890625 30.128906 C 55.101562 29.03125 54.679688 27.730469 54.660156 26.230469 L 59.929688 26.230469 C 60 27.238281 60.359375 28.039062 61 28.621094 C 61.640625 29.210938 62.53125 29.5 63.648438 29.5 C 64.769531 29.5 65.699219 29.21875 66.351562 28.671875 C 67 28.121094 67.328125 27.398438 67.328125 26.511719 C 67.328125 25.789062 67.109375 25.191406 66.660156 24.71875 C 66.210938 24.25 65.660156 23.878906 64.988281 23.621094 C 64.320312 23.359375 63.398438 23.050781 62.230469 22.71875 C 60.640625 22.25 59.339844 21.789062 58.351562 21.328125 C 57.359375 20.871094 56.5 20.179688 55.789062 19.261719 C 55.078125 18.339844 54.71875 17.101562 54.71875 15.558594 C 54.71875 14.109375 55.078125 12.851562 55.808594 11.769531 C 56.539062 10.691406 57.558594 9.871094 58.871094 9.300781 C 60.179688 8.730469 61.679688 8.441406 63.371094 8.441406 C 65.898438 8.441406 67.960938 9.050781 69.53125 10.28125 C 71.109375 11.511719 71.980469 13.21875 72.148438 15.429688 L 66.738281 15.429688 C 66.691406 14.589844 66.339844 13.890625 65.671875 13.339844 C 65 12.789062 64.121094 12.511719 63.019531 12.511719 C 62.058594 12.511719 61.289062 12.75 60.71875 13.25 C 60.140625 13.738281 59.859375 14.460938 59.859375 15.390625 C 59.859375 16.050781 60.078125 16.589844 60.511719 17.019531 C 60.949219 17.460938 61.480469 17.800781 62.128906 18.078125 C 62.78125 18.359375 63.679688 18.660156 64.851562 19.011719 C 66.441406 19.480469 67.738281 19.949219 68.75 20.410156 C 69.761719 20.871094 70.621094 21.578125 71.351562 22.511719 C 72.070312 23.449219 72.441406 24.671875 72.441406 26.199219 C 72.441406 27.511719 72.101562 28.730469 71.421875 29.859375 C 70.738281 30.988281 69.738281 31.878906 68.429688 32.550781 C 67.121094 33.21875 65.558594 33.550781 63.761719 33.550781 C 62.058594 33.550781 60.519531 33.261719 59.148438 32.671875 Z M 59.140625 32.660156 "/>
<path style=" stroke:none;fill-rule:nonzero;fill:rgb(100%,100%,100%);fill-opacity:1;" d="M 81.359375 31.929688 C 79.441406 30.851562 77.921875 29.359375 76.789062 27.449219 C 75.660156 25.539062 75.101562 23.378906 75.101562 20.96875 C 75.101562 18.558594 75.660156 16.429688 76.789062 14.519531 C 77.921875 12.609375 79.429688 11.121094 81.359375 10.039062 C 83.28125 8.960938 85.390625 8.421875 87.679688 8.421875 C 89.96875 8.421875 92.109375 8.960938 94.019531 10.039062 C 95.929688 11.121094 97.441406 12.609375 98.550781 14.519531 C 99.660156 16.429688 100.21875 18.578125 100.21875 20.96875 C 100.21875 23.359375 99.671875 25.539062 98.550781 27.449219 C 97.429688 29.359375 95.921875 30.851562 94 31.929688 C 92.078125 33.011719 89.96875 33.550781 87.679688 33.550781 C 85.390625 33.550781 83.269531 33.011719 81.351562 31.929688 Z M 91.589844 28.148438 C 92.71875 27.480469 93.589844 26.53125 94.21875 25.289062 C 94.851562 24.050781 95.171875 22.609375 95.171875 20.96875 C 95.171875 19.328125 94.851562 17.898438 94.21875 16.671875 C 93.589844 15.441406 92.710938 14.5 91.589844 13.839844 C 90.460938 13.191406 89.160156 12.859375 87.691406 12.859375 C 86.21875 12.859375 84.910156 13.191406 83.769531 13.839844 C 82.628906 14.488281 81.75 15.441406 81.121094 16.671875 C 80.488281 17.898438 80.171875 19.339844 80.171875 20.96875 C 80.171875 22.601562 80.488281 24.050781 81.121094 25.289062 C 81.75 26.53125 82.640625 27.488281 83.769531 28.148438 C 84.910156 28.820312 86.210938 29.148438 87.691406 29.148438 C 89.171875 29.148438 90.46875 28.820312 91.589844 28.148438 Z M 91.589844 28.148438 "/>
<path style=" stroke:none;fill-rule:nonzero;fill:url(#linear0);" d="M 108.78125 0 L 113.039062 0 L 113.039062 29.261719 L 108.78125 29.261719 Z M 108.78125 0 "/>
<path style=" stroke:none;fill-rule:nonzero;fill:url(#linear1);" d="M 108.78125 37.789062 L 113.039062 37.789062 L 113.039062 67 L 108.78125 67 Z M 108.78125 37.789062 "/>
<path style=" stroke:none;fill-rule:nonzero;fill:url(#linear2);" d="M 108.78125 42.058594 L 108.78125 37.789062 L 159.941406 37.789062 L 159.941406 42.058594 Z M 108.78125 42.058594 "/>
<path style=" stroke:none;fill-rule:nonzero;fill:url(#linear3);" d="M 108.78125 29.261719 L 108.78125 25 L 159.941406 25 L 159.941406 29.261719 Z M 108.78125 29.261719 "/>
<path style=" stroke:none;fill-rule:nonzero;fill:rgb(100%,100%,100%);fill-opacity:1;" d="M 151.011719 11.398438 C 137.308594 18.238281 137.5 18.148438 123.800781 24.988281 C 123.789062 24.988281 123.769531 25 123.761719 25.011719 L 114.261719 25.011719 C 114.339844 24.96875 114.410156 24.941406 114.46875 24.910156 L 144.71875 9.71875 L 140.191406 9.71875 L 118.410156 20.589844 C 116.691406 21.449219 114.960938 22.289062 113.230469 23.140625 C 113.179688 23.171875 113.121094 23.191406 113.039062 23.21875 L 113.039062 13.441406 L 108.78125 13.441406 L 108.800781 28.929688 C 108.800781 29.039062 108.808594 29.140625 108.820312 29.28125 L 146.839844 29.28125 L 146.839844 25.019531 L 137.890625 25.019531 C 137.890625 25.019531 137.949219 24.980469 137.980469 24.96875 C 147.011719 20.460938 142.148438 22.878906 151.179688 18.371094 C 151.261719 18.328125 151.339844 18.308594 151.410156 18.28125 L 151.410156 11.269531 C 151.28125 11.320312 151.140625 11.359375 151.011719 11.421875 Z M 151.011719 11.398438 "/>
<path style=" stroke:none;fill-rule:nonzero;fill:rgb(100%,100%,100%);fill-opacity:1;" d="M 133.859375 42.070312 C 134.039062 42.070312 134.238281 42.121094 134.410156 42.199219 C 139.171875 44.511719 143.941406 46.839844 148.699219 49.160156 L 151.410156 50.429688 L 151.410156 48 L 139.46875 42.199219 C 139.46875 42.199219 139.378906 42.148438 139.230469 42.058594 L 139.730469 42.058594 C 146.171875 42.058594 144.519531 42.058594 145.910156 42.058594 L 151.230469 42.058594 L 151.230469 37.800781 C 151.121094 37.800781 151 37.789062 150.878906 37.789062 L 108.78125 37.789062 L 108.78125 51.699219 C 108.78125 51.828125 108.789062 51.949219 108.800781 52.078125 L 113.050781 52.078125 L 113.050781 43.941406 C 113.199219 44 113.429688 44.089844 113.53125 44.148438 C 115.859375 45.289062 118.191406 46.421875 120.519531 47.550781 L 135.910156 54.898438 L 150.699219 54.898438 L 124.320312 42.089844 L 124.398438 42.179688 C 124.398438 42.179688 124.371094 42.140625 124.320312 42.089844 C 124.429688 42.078125 124.519531 42.070312 124.609375 42.070312 C 127.691406 42.070312 130.78125 42.070312 133.871094 42.070312 Z M 133.859375 42.070312 "/>
</g>
</svg>
